<svg id="Layer_1" data-name="Layer 1" xmlns="http://www.w3.org/2000/svg" viewBox="0 0 200 200"><defs><style>.cls-1{fill:#004bb8;}.cls-2{fill:#fff;}</style></defs><title>icon</title><g id="icon"><rect id="bg" class="cls-1" width="200" height="200" rx="20"/><g id="hunnu"><path class="cls-2" d="M36.55,27A36.76,36.76,0,0,1-.1,63c-20-.13-36.65-17-36.35-36.77A36.73,36.73,0,0,1,.46-10,36.66,36.66,0,0,1,36.55,27Z" transform="translate(100 100)"/><path class="cls-2" d="M-50,40.42c20.26,41.45,79.15,42.5,99.8.84C52.46,64,28.62,89.15,3.35,90.31-30.19,91.86-50.26,64.87-50,40.42Z" transform="translate(100 100)"/><path class="cls-2" d="M10.22-68.09c4.32,2.75,5.86,6,6.18,9.9.19,2.32.41,4.7,2.07,6.36,9.6,9.56,2,26.2-9.67,30.93A23,23,0,0,1-22.6-39.12c-.61-4.82,8-25.57,12.43-28.8a13.86,13.86,0,0,0,.25,11.74c1.11,2.43.08,4.36-1.76,6.07s-2.65,3.75-1,6.06c1.15,1.59,2.69,2.51,4.72,1.84a4.65,4.65,0,0,0,3.36-5.3A29.33,29.33,0,0,0-6-54.63,11.69,11.69,0,0,1-4.33-66.26c2.66-3.61,3.13-7.36,2.09-11.62-1.15-4.67-.59-9,4.11-12.5-4.76,8,.3,13.51,3.94,19.46a15.21,15.21,0,0,1,.75,15.61,18.42,18.42,0,0,0-1.88,8.38,4.63,4.63,0,0,0,3.58,4.71c2.06.63,3.51-.41,4.65-2a3.73,3.73,0,0,0-.6-5.35c-3.21-2.67-3.06-5.52-1.42-8.91C12.26-61.34,11.69-64.35,10.22-68.09Z" transform="translate(100 100)"/></g></g></svg>