<svg id="Layer_1" data-name="Layer 1" xmlns="http://www.w3.org/2000/svg" viewBox="0 0 405.62 187.54"><defs><style>.cls-1,.cls-2{fill:#fff;}.cls-2{font-size:100px;font-family:Arial-Black, Arial Black;font-weight:800;}</style></defs><title>logo</title><g id="logo"><g id="hunnu"><path class="cls-1" d="M41.55,23.06A36.75,36.75,0,0,1,4.9,59c-20-.12-36.65-17-36.35-36.76A36.74,36.74,0,0,1,5.46-13.91,36.66,36.66,0,0,1,41.55,23.06Z" transform="translate(202.81 94.3)"/><path class="cls-1" d="M-45,36.49C-24.74,78,34.15,79,54.8,37.33,57.46,60.07,33.62,85.22,8.35,86.38-25.19,87.93-45.26,60.94-45,36.49Z" transform="translate(202.81 94.3)"/><path class="cls-1" d="M15.22-72c4.32,2.75,5.86,6,6.18,9.9.19,2.32.41,4.7,2.07,6.36,9.6,9.56,2,26.2-9.67,30.94A23,23,0,0,1-17.6-43c-.61-4.81,8-25.57,12.43-28.8a13.86,13.86,0,0,0,.25,11.74c1.11,2.43.08,4.36-1.76,6.07s-2.65,3.75-1,6.06c1.15,1.59,2.69,2.52,4.72,1.84a4.65,4.65,0,0,0,3.36-5.3A29.25,29.25,0,0,0-1-58.55,11.71,11.71,0,0,1,.67-70.19C3.33-73.8,3.8-77.55,2.76-81.81c-1.15-4.66-.59-9,4.11-12.49-4.76,8,.3,13.5,3.94,19.46a15.21,15.21,0,0,1,.75,15.61,18.35,18.35,0,0,0-1.88,8.37,4.63,4.63,0,0,0,3.58,4.72c2.06.62,3.51-.42,4.65-2a3.73,3.73,0,0,0-.6-5.35c-3.21-2.67-3.06-5.52-1.42-8.91C17.26-65.27,16.69-68.28,15.22-72Z" transform="translate(202.81 94.3)"/></g><text id="aravt" class="cls-2" transform="translate(0 156.87)"><tspan xml:space="preserve">AR   VT</tspan></text></g></svg>